<svg width="1280" height="340" viewBox="0 0 1280 340" fill="none" xmlns="http://www.w3.org/2000/svg">
  <defs>
    <pattern id="stripes" width="10" height="10" patternUnits="userSpaceOnUse" patternTransform="rotate(-45)">
      <line x1="0" y1="0" x2="0" y2="10" stroke="#FFFFFF" stroke-opacity="0.09" stroke-width="2"/>
    </pattern>
  </defs>

  <rect width="1280" height="340" rx="8" fill="#000000"/>
  <rect x="24" y="24" width="1232" height="292" rx="8" stroke="#333333"/>

  <text x="62" y="65" fill="#707070" font-family="Inter, Arial, sans-serif" font-size="12" font-weight="800" letter-spacing="3">CICLO DE ENGENHARIA / DA OPERAÇÃO À EVOLUÇÃO</text>
  <rect x="62" y="82" width="56" height="3" fill="#FFFFFF"/>
  <text x="1080" y="250" fill="#FFFFFF" fill-opacity="0.025" font-family="Satoshi, Inter, Arial, sans-serif" font-size="180" font-weight="900">07</text>

  <path d="M118 182H1162" stroke="#333333" stroke-width="1"/>

  <g font-family="Inter, Arial, sans-serif">
    <g transform="translate(118 182)">
      <circle r="13" fill="#FFFFFF"/>
      <rect x="-72" y="-70" width="144" height="42" rx="4" fill="#111111" stroke="#333333"/>
      <text x="0" y="-44" text-anchor="middle" fill="#FFFFFF" font-size="12" font-weight="900" letter-spacing="1.2">ENTENDER</text>
      <text x="0" y="42" text-anchor="middle" fill="#6F6F6F" font-size="11" font-weight="600">operação</text>
    </g>

    <g transform="translate(292 182)">
      <circle r="13" fill="#1A1A1A" stroke="#FFFFFF"/>
      <rect x="-72" y="-70" width="144" height="42" rx="4" fill="#111111" stroke="#333333"/>
      <text x="0" y="-44" text-anchor="middle" fill="#FFFFFF" font-size="12" font-weight="900" letter-spacing="1.2">MODELAR</text>
      <text x="0" y="42" text-anchor="middle" fill="#6F6F6F" font-size="11" font-weight="600">arquitetura</text>
    </g>

    <g transform="translate(466 182)">
      <circle r="13" fill="#1A1A1A" stroke="#FFFFFF"/>
      <rect x="-72" y="-70" width="144" height="42" rx="4" fill="#111111" stroke="#333333"/>
      <text x="0" y="-44" text-anchor="middle" fill="#FFFFFF" font-size="12" font-weight="900" letter-spacing="1.2">CONSTRUIR</text>
      <text x="0" y="42" text-anchor="middle" fill="#6F6F6F" font-size="11" font-weight="600">produto</text>
    </g>

    <g transform="translate(640 182)">
      <circle r="13" fill="#1A1A1A" stroke="#FFFFFF"/>
      <rect x="-72" y="-70" width="144" height="42" rx="4" fill="#FFFFFF"/>
      <text x="0" y="-44" text-anchor="middle" fill="#000000" font-size="12" font-weight="900" letter-spacing="1.2">CONECTAR</text>
      <text x="0" y="42" text-anchor="middle" fill="#6F6F6F" font-size="11" font-weight="600">sistemas</text>
    </g>

    <g transform="translate(814 182)">
      <circle r="13" fill="#1A1A1A" stroke="#FFFFFF"/>
      <rect x="-72" y="-70" width="144" height="42" rx="4" fill="#111111" stroke="#333333"/>
      <text x="0" y="-44" text-anchor="middle" fill="#FFFFFF" font-size="12" font-weight="900" letter-spacing="1.2">OBSERVAR</text>
      <text x="0" y="42" text-anchor="middle" fill="#6F6F6F" font-size="11" font-weight="600">comportamento</text>
    </g>

    <g transform="translate(988 182)">
      <circle r="13" fill="#1A1A1A" stroke="#FFFFFF"/>
      <rect x="-76" y="-70" width="152" height="42" rx="4" fill="#111111" stroke="#333333"/>
      <text x="0" y="-44" text-anchor="middle" fill="#FFFFFF" font-size="12" font-weight="900" letter-spacing="1">AUTOMATIZAR</text>
      <text x="0" y="42" text-anchor="middle" fill="#6F6F6F" font-size="11" font-weight="600">repetição</text>
    </g>

    <g transform="translate(1162 182)">
      <circle r="13" fill="#FFFFFF"/>
      <rect x="-72" y="-70" width="144" height="42" rx="4" fill="#111111" stroke="#333333"/>
      <text x="0" y="-44" text-anchor="middle" fill="#FFFFFF" font-size="12" font-weight="900" letter-spacing="1.2">EVOLUIR</text>
      <text x="0" y="42" text-anchor="middle" fill="#6F6F6F" font-size="11" font-weight="600">sistema</text>
    </g>
  </g>

  <path d="M1162 182C1210 182 1210 92 1154 92H126C70 92 70 182 118 182" stroke="#FFFFFF" stroke-opacity="0.12" stroke-width="1.5" stroke-dasharray="5 8"/>
  <circle cx="640" cy="284" r="31" fill="url(#stripes)" stroke="#FFFFFF" stroke-opacity="0.14"/>
</svg>